<?xml version="1.0" standalone="no"?>
<!DOCTYPE svg PUBLIC "-//W3C//DTD SVG 20010904//EN"
 "http://www.w3.org/TR/2001/REC-SVG-20010904/DTD/svg10.dtd">
<svg version="1.0" xmlns="http://www.w3.org/2000/svg"
 width="512.000000pt" height="512.000000pt" viewBox="0 0 512.000000 512.000000"
 preserveAspectRatio="xMidYMid meet">

<g transform="translate(0.000000,512.000000) scale(0.100000,-0.100000)"
fill="#000000" stroke="none">
<path d="M1298 5083 c-63 -69 -162 -251 -212 -390 -120 -339 -158 -742 -114
-1230 l11 -132 -64 -68 c-96 -102 -164 -197 -214 -298 -52 -104 -70 -193 -48
-225 19 -26 41 -25 109 5 31 14 58 25 61 25 2 0 -8 -19 -22 -42 -94 -153 -175
-349 -201 -485 -17 -92 -19 -234 -2 -251 23 -23 58 -14 76 19 37 66 40 60 16
-36 -14 -58 -24 -130 -24 -172 0 -63 3 -74 20 -83 32 -17 54 -4 94 53 20 30
47 64 60 76 l23 22 6 -98 c4 -70 14 -125 35 -191 49 -151 93 -214 302 -427
102 -104 214 -223 249 -262 35 -41 71 -73 81 -73 32 0 53 30 47 67 -8 47 4 36
74 -69 63 -93 119 -201 119 -229 0 -24 39 -69 59 -69 42 0 61 56 70 203 1 5
47 -56 104 -135 187 -261 322 -420 434 -509 41 -32 85 -62 98 -65 81 -20 324
231 588 608 42 61 77 107 78 102 8 -145 29 -204 70 -204 20 0 59 45 59 69 0
38 154 304 188 325 5 3 8 -14 8 -37 -1 -37 2 -42 28 -51 27 -10 31 -8 95 64
36 41 149 161 252 265 208 213 252 276 301 427 21 66 31 121 35 191 l6 98 23
-22 c13 -12 40 -46 60 -76 40 -57 62 -70 94 -53 17 9 20 20 20 83 0 42 -10
114 -24 172 -24 96 -21 102 16 36 18 -33 53 -42 76 -19 17 17 15 164 -4 256
-29 142 -106 328 -199 480 -14 23 -24 42 -22 42 3 0 30 -11 61 -25 68 -30 90
-31 109 -5 34 48 -28 221 -130 365 -28 39 -83 105 -123 148 l-73 78 14 152
c17 188 17 525 0 672 -39 348 -140 657 -279 862 -85 124 -113 124 -160 1 -70
-184 -198 -331 -458 -525 -88 -66 -165 -123 -171 -126 -6 -4 -38 5 -72 18
-133 54 -334 80 -505 65 -127 -11 -280 -47 -362 -84 l-55 -25 -52 33 c-29 18
-86 53 -127 76 -144 84 -320 285 -472 540 -34 58 -67 108 -72 112 -21 14 -42
8 -68 -19z m176 -338 c121 -174 270 -320 404 -395 85 -48 222 -146 222 -159 0
-5 -12 -17 -27 -26 -16 -10 -40 -28 -54 -41 l-26 -24 -43 51 c-52 62 -182 171
-310 260 -172 120 -280 248 -336 395 l-25 66 27 45 26 45 43 -68 c24 -38 68
-105 99 -149z m2352 154 c14 -28 13 -33 -10 -84 -55 -120 -161 -238 -308 -341
-167 -118 -271 -224 -343 -348 -29 -49 -29 -49 -44 -27 -8 13 -34 38 -58 56
l-44 33 238 179 c132 98 273 213 316 257 76 77 167 202 203 278 19 41 27 41
50 -3z m-1848 -2090 c70 -34 131 -98 108 -111 -20 -11 -117 9 -146 31 -29 21
-70 78 -70 97 0 23 43 16 108 -17z m1272 17 c0 -19 -41 -76 -70 -98 -28 -20
-128 -40 -147 -29 -22 12 43 77 109 110 65 33 108 40 108 17z m-1951 -288
c-15 -81 -10 -240 11 -322 36 -141 94 -222 271 -381 69 -62 219 -296 314 -489
93 -192 140 -254 227 -300 29 -16 76 -50 103 -76 82 -76 222 -130 340 -130
119 0 259 55 335 131 25 25 69 58 99 74 86 47 132 108 231 309 119 243 263
458 342 512 64 45 155 151 192 225 52 104 70 198 63 338 -2 64 -8 125 -13 136
-4 11 29 -14 73 -56 77 -72 211 -170 300 -219 39 -21 44 -30 77 -120 19 -54
40 -117 46 -141 6 -24 14 -53 17 -63 4 -14 -8 -8 -43 21 -27 22 -58 45 -69 51
-20 10 -64 0 -66 -15 0 -4 -1 -80 -3 -168 -2 -143 -5 -169 -29 -240 -45 -134
-86 -192 -277 -386 l-176 -178 1 51 c0 57 -16 75 -56 64 -27 -7 -130 -136
-233 -291 l-66 -99 0 70 c0 59 -4 74 -20 89 -36 33 -61 10 -165 -145 -114
-170 -267 -375 -356 -478 -64 -72 -195 -192 -211 -192 -5 0 -47 37 -94 82
-138 132 -266 293 -455 572 -122 180 -140 196 -180 160 -15 -14 -19 -31 -19
-87 l0 -69 -68 104 c-38 56 -101 145 -141 196 -61 78 -76 92 -100 92 -39 0
-54 -21 -50 -72 l4 -43 -170 173 c-93 96 -185 196 -203 223 -81 119 -118 272
-109 452 5 117 5 118 -19 134 -31 20 -56 10 -118 -47 l-45 -41 10 38 c17 64
71 227 85 253 7 15 50 49 98 78 98 60 212 148 276 215 25 25 46 46 46 46 1 1
-2 -18 -7 -41z"/>
</g>
</svg>
